<mxfile host="app.diagrams.net" modified="2023-12-04T09:39:47.889Z" agent="Mozilla/5.0 (Windows NT 10.0; Win64; x64) AppleWebKit/537.36 (KHTML, like Gecko) Chrome/119.0.0.0 Safari/537.36" version="22.1.5" etag="tE7ZWMZqY5kXirqBcQ_q" type="github">
  <diagram name="Page-1" id="GK6bBB8G9Y9gRNBZ2vOu">
    <mxGraphModel>
      <root>
        <mxCell id="0" />
        <mxCell id="1" parent="0" />
      </root>
    </mxGraphModel>
  </diagram>
</mxfile>
